<svg fill="none" height="77" viewBox="0 0 77 77" width="77" xmlns="http://www.w3.org/2000/svg"><path clip-rule="evenodd" d="m38.5 0c-21.263 0-38.5 17.237-38.5 38.5v33.1279c0 2.967 2.40517 5.3721 5.37209 5.3721h33.12791c21.263 0 38.5-17.237 38.5-38.5s-17.237-38.5-38.5-38.5zm-7.4625 62.2355c-.207-.2365-.3105-.5223-.3105-.8574v-5.6466c0-.3351.1035-.6159.3105-.8426.2168-.2365.4976-.3548.8425-.3548s.6209.1183.8278.3548c.2168.2267.3252.5075.3252.8426v5.6466c0 .3351-.1084.6209-.3252.8574-.2069.2266-.4829.34-.8278.34s-.6257-.1134-.8425-.34zm-.4287-9.2239c-.069-.1675-.1035-.3449-.1035-.5321 0-.1971.0345-.3745.1035-.5322.0788-.1675.1774-.3153.2956-.4434.1281-.1282.2759-.2267.4435-.2957.1675-.069.3449-.1035.5321-.1035.1873 0 .3646.0345.5322.1035.1675.069.3104.1675.4286.2957.1281.1281.2267.2759.2957.4434.0788.1577.1182.3351.1182.5322 0 .1872-.0394.3646-.1182.5321-.069.1675-.1676.3154-.2957.4435-.1182.1281-.2611.2266-.4286.2956-.1676.069-.3449.1035-.5322.1035-.1872 0-.3646-.0345-.5321-.1035-.1676-.069-.3154-.1675-.4435-.2956-.1182-.1281-.2168-.276-.2956-.4435zm-5.0575 9.2534c-.2266-.2168-.34-.537-.34-.9608v-7.1248h-1.3451c-.404 0-.7095-.0986-.9165-.2957-.2168-.2069-.3252-.4779-.3252-.813 0-.3449.1084-.6159.3252-.813.207-.1971.5125-.2956.9165-.2956h5.0849c.4041 0 .7096.0985.9165.2956.2168.1971.3252.4681.3252.813 0 .3351-.1084.6061-.3252.813-.2069.1971-.5124.2957-.9165.2957h-1.3451v7.1248c0 .4238-.1133.744-.34.9608-.2266.207-.5124.3105-.8573.3105s-.6307-.1035-.8574-.3105zm8.9001-.8869c0 .3351.1034.6209.3104.8574.2168.2266.4976.34.8425.34.345 0 .6209-.1134.8278-.34.2168-.2365.3252-.5223.3252-.8574v-3.6511c0-.3646.0986-.6849.2957-.9608.1971-.2858.4828-.4287.8573-.4287s.6603.1429.8574.4287c.1971.2759.2956.5962.2956.9608v3.6511c0 .3351.1035.6209.3104.8574.2168.2266.4977.34.8426.34s.6208-.1134.8278-.34c.2168-.2365.3252-.5223.3252-.8574v-3.6511c0-.3646.0985-.6849.2956-.9608.1971-.2858.4829-.4287.8574-.4287.3744 0 .6602.1429.8573.4287.1971.2759.2956.5962.2956.9608v3.6511c0 .3351.1035.6209.3105.8574.2168.2266.4976.34.8425.34s.6209-.1134.8278-.34c.2168-.2365.3252-.5223.3252-.8574v-4.2719c0-.473-.0739-.882-.2217-1.2269s-.3548-.6258-.6209-.8426c-.2562-.2266-.5567-.3892-.9017-.4878-.3449-.1084-.7193-.1626-1.1234-.1626-.2463 0-.4779.0296-.6947.0887-.207.0591-.4041.138-.5913.2365-.1774.0887-.3449.1873-.5026.2957s-.3055.2168-.4434.3252c-.2858-.3548-.6307-.6012-1.0348-.7391-.404-.138-.7735-.207-1.1086-.207-.4139 0-.8032.0789-1.1678.2365-.3547.1478-.6257.3646-.813.6504-.0788-.1675-.2118-.3301-.3991-.4878-.1872-.1675-.4385-.2513-.7539-.2513-.3449 0-.6257.1183-.8425.3548-.207.2267-.3104.5075-.3104.8426zm20.1748-2.2616c-.1873.1281-.4681.1922-.8426.1922h-4.1685c0 .1182.0246.2562.0739.4139.0591.1478.1577.2857.2956.4139.138.1281.3252.2365.5618.3252.2463.0887.5518.133.9164.133.2858 0 .542-.0345.7687-.1035.2365-.0788.4484-.1626.6356-.2513.1971-.0985.3745-.1823.5322-.2513.1576-.0788.3005-.1182.4286-.1182.2562 0 .478.0936.6652.2808.1971.1774.2957.4139.2957.7096 0 .2759-.1084.5321-.3252.7686-.207.2267-.4829.4238-.8278.5913-.3449.1577-.7342.2809-1.1678.3695-.4336.0887-.8672.1331-1.3008.1331-.6208 0-1.1826-.1084-1.6851-.3252-.4928-.2168-.9165-.5125-1.2713-.8869-.3449-.3745-.611-.813-.7982-1.3156-.1872-.5125-.2808-1.0594-.2808-1.6408 0-.5519.0985-1.0791.2956-1.5817.1971-.5025.473-.946.8278-1.3303.3646-.3844.7933-.6898 1.286-.9165s1.0347-.34 1.626-.34c.5716 0 1.084.1133 1.5373.34.4632.2168.8574.5075 1.1826.8721.3252.3548.5765.7687.7538 1.2417.1774.473.2661.9608.2661 1.4634 0 .404-.0936.675-.2808.813zm-4.9076-1.8182c-.069.1577-.1035.3006-.1035.4287h2.9859c0-.1281-.0345-.271-.1034-.4287-.069-.1675-.1725-.3202-.3105-.4582-.1281-.138-.2857-.2562-.473-.3548-.1774-.0985-.3794-.1478-.606-.1478-.2267 0-.4336.0493-.6209.1478-.1774.0986-.335.2168-.473.3548-.1281.138-.2266.2907-.2956.4582z" fill="#27ae60" fill-rule="evenodd"/><g fill="#fff"><path d="m55.7539 53.5363c0 .5267.2123.9514.5348 1.2793l.1613-.0834c-.3118-.3198-.5026-.7149-.5026-1.1959 0-.4784.1908-.8735.5026-1.1933l-.1613-.0834c-.3225.3279-.5348.7526-.5348 1.2767z"/><path d="m57.6487 52.4424v.8197c0 .4193-.0242.9944-.3091 1.3976.0457.0215.129.086.1639.1236.3011-.4246.3441-1.0723.3441-1.5212v-.8197zm.1075 0v.1908h1.3492v-.1908zm-.0081.7149v.1908h1.1799v-.1908zm.2903.1102-.1801.043c.2096.688.5993 1.2175 1.196 1.4621.0296-.0511.0914-.129.1371-.1694-.5779-.2096-.9676-.7149-1.153-1.3357zm.8278-.1102v.043c-.1532.7391-.5886 1.1933-1.1342 1.4164.043.0322.1048.1155.1344.1612.5617-.2472 1.0213-.7444 1.2013-1.5776l-.1236-.0484-.0403.0054zm-1.5508-.8493c-.1559.4058-.4193.8063-.6907 1.0589.0376.0484.0941.1559.1156.2016.2956-.2956.5832-.7471.7659-1.1987zm-.2795.6934v1.7658h.1935v-1.9512l-.0027-.0027z"/><path d="m60.0783 53.5363c0-.5241-.2124-.9488-.5349-1.2767l-.1612.0834c.3117.3198.5026.7149.5026 1.1933 0 .481-.1909.8761-.5026 1.1959l.1612.0834c.3225-.3279.5349-.7526.5349-1.2793z"/><path d="m30.0743 33.9178c-.2867 1.0392-.8242 1.8545-1.6126 2.4458-.7884.5733-1.7828.9317-2.9832 1.075.86.0717 1.505.3225 1.935.7525s.6451.9944.6451 1.6932c0 .2688-.0448.6003-.1344.9944l-.2957 1.317c-.0358.1791-.0537.3046-.0537.3762 0 .233.0537.4121.1612.5375.1075.1076.2598.1613.4569.1613.3763 0 .6451.0538.8063.1613.1792.1075.2419.3046.1881.5912-.0716.4121-.2866.8153-.645 1.2095-.3583.3941-.869.7256-1.5319.9944-.645.2508-1.4334.3762-2.3651.3762-1.1826 0-2.1232-.2598-2.822-.7794-.6988-.5375-1.0482-1.299-1.0482-2.2844 0-.3763.0538-.7794.1613-1.2095l.43-1.72c.0717-.233.1075-.4748.1075-.7257 0-.4121-.1433-.7077-.43-.8869-.2688-.1792-.7077-.2688-1.3169-.2688h-1.0213l-1.2363 4.4615c-.0359.1075-.0538.2419-.0538.4031 0 .2509.0627.4659.1882.645.1254.1792.2956.3674.5106.5644.1613.1255.2867.2509.3763.3763.0896.1075.1343.224.1343.3494 0 .3046-.1433.5196-.43.645-.2866.1254-.7077.1882-1.2631.1882h-6.7459c-.4659 0-.81529-.0807-1.04821-.2419-.23293-.1792-.31356-.4211-.24189-.7257.03584-.1612.1075-.2867.21501-.3762.08959-.1076.23293-.224.43002-.3494.30459-.1792.54647-.3673.72567-.5644s.3225-.5017.43-.9138l3.2789-11.5836c.0717-.2329.1075-.4569.1075-.6719 0-.1971-.0358-.3584-.1075-.4838-.0538-.1433-.1344-.3046-.2419-.4838-.1613-.2329-.2419-.421-.2419-.5644 0-.0537.0179-.1523.0538-.2956.0716-.2329.2239-.3942.4569-.4838.2508-.1075.6271-.1612 1.1288-.1612h9.0034c1.2363 0 2.3114.1881 3.2252.5644.9317.3762 1.6394.8958 2.1232 1.5588.5017.645.7525 1.3796.7525 2.2038 0 .3763-.0537.7526-.1612 1.1288zm-6.8803-.2687c.0896-.4121.1344-.7257.1344-.9407 0-.9496-.5196-1.4244-1.5589-1.4244h-1.1287l-1.1826 4.757h1.1288c.6988 0 1.2453-.1702 1.6394-.5106.4121-.3404.7347-.9675.9676-1.8813z"/><path d="m47.8606 28.2201c.2866 0 .5554.215.8062.645.2688.4121.4032.9586.4032 1.6395 0 .4479-.0448.851-.1344 1.2094-.2508 1.1467-.7346 1.9888-1.4513 2.5263-.6988.5376-1.7201.8063-3.0639.8063-.6808 0-1.3348-.0806-1.9619-.2419-.6271-.1791-1.3797-.43-2.2576-.7525-.6092-.2329-1.1199-.4031-1.532-.5106-.4121-.1255-.7973-.1882-1.1556-.1882-.5913 0-.9944.3494-1.2095 1.0482l-.6719 2.4457c1.4693-.5913 3.046-.8869 4.7302-.8869 1.2363 0 2.3831.1792 3.4402.5375 1.075.3584 1.9351.8959 2.5801 1.6126.6629.6988.9944 1.5409.9944 2.5263 0 .2867-.0448.6361-.1344 1.0482-.3404 1.4692-1.29 2.6428-2.8488 3.5208-1.5409.8779-3.5925 1.3169-6.1547 1.3169-1.9888 0-3.6103-.1792-4.8645-.5375-1.2363-.3584-2.1322-.8152-2.6877-1.3707-.5554-.5733-.8331-1.2005-.8331-1.8813 0-.2867.0358-.5465.1075-.7794.1792-.6092.5106-1.0751.9944-1.3976.5017-.3404 1.1467-.5106 1.9351-.5106.8779 0 1.5588.206 2.0426.6181.5017.4121.7525.9496.7525 1.6126 0 .5375-.1792 1.1198-.5375 1.7469.5017.0896.9227.1344 1.2631.1344.9676 0 1.756-.2329 2.3651-.6988.6092-.4837 1.0303-1.1377 1.2632-1.9619.1075-.4121.1613-.7705.1613-1.0751 0-.6092-.1971-1.075-.5913-1.3975-.3763-.3404-.8959-.5107-1.5588-.5107-.4838 0-1.0392.0986-1.6663.2957-.6809.215-1.308.3225-1.8814.3225h-.8869c-.6629 0-.9944-.2956-.9944-.8869 0-.1792.0448-.43.1344-.7526l1.8276-6.2083c.2329-.8063.5823-1.3618 1.0481-1.6664.4838-.3045 1.1736-.4568 2.0695-.4568.6809 0 1.4424.0268 2.2845.0806.3225.0179.7973.0358 1.4244.0537.6271.018 1.1736.0269 1.6394.0269 1.1288 0 1.9799-.0806 2.5533-.2419.5913-.1612 1.1198-.3673 1.5857-.6181.3225-.1613.5464-.2419.6719-.2419z"/><path d="m60.5671 28.4082c4.8914 0 7.3372 1.8724 7.3372 5.6171 0 1.0392-.1792 2.186-.5376 3.4402-.9138 3.2251-2.3024 5.5454-4.1658 6.9609-1.8455 1.3975-4.1926 2.0963-7.0415 2.0963-4.8735 0-7.3103-1.8634-7.3103-5.5902 0-1.0571.1792-2.2128.5375-3.467.9138-3.2252 2.2934-5.5365 4.1389-6.9341 1.8635-1.4154 4.2106-2.1232 7.0416-2.1232zm-.2957 2.4726c-.4121 0-.8062.1792-1.1825.5375-.3584.3584-.7436 1.0213-1.1557 1.9889-.3942.9496-.8331 2.3024-1.3169 4.0583-.6809 2.4905-1.0213 4.2464-1.0213 5.2677 0 .5017.0717.8511.215 1.0482.1613.197.3942.2956.6988.2956.4121 0 .7973-.1792 1.1557-.5375.3762-.3584.7615-1.0213 1.1556-1.9889.4121-.9675.8511-2.3292 1.317-4.0851.6987-2.5622 1.0481-4.3181 1.0481-5.2677 0-.4838-.0806-.8242-.2419-1.0213-.1433-.1971-.3673-.2957-.6719-.2957z"/></g></svg>